<svg xmlns="http://www.w3.org/2000/svg" viewBox="0 0 24 24" id="car"><path d="M22.89,8.6,14.57,6.33a5.54,5.54,0,0,0-4.08.47l-3.66,2-5.33,1A1.5,1.5,0,0,0,0,11.29v3a1.5,1.5,0,0,0,1.5,1.5h1a2.49,2.49,0,0,0,4.91,0h9.09a2.49,2.49,0,0,0,4.91,0h1a1.5,1.5,0,0,0,1.5-1.5V10A1.5,1.5,0,0,0,22.89,8.6ZM18,8.31v.48h-.7L16.91,8Zm-7-.62a4.53,4.53,0,0,1,3.14-.42l.2,0,.17,0,1.14.31.56,1.13H9ZM5,16.86a1.5,1.5,0,1,1,1.5-1.5A1.5,1.5,0,0,1,5,16.86Zm14,0a1.5,1.5,0,1,1,1.5-1.5A1.5,1.5,0,0,1,19,16.86Zm4-5.07h-.5a.5.5,0,0,0,0,1H23v1.5a.5.5,0,0,1-.5.5H21.43a2.49,2.49,0,0,0-4.85,0H7.43a2.49,2.49,0,0,0-4.85,0H1.5a.5.5,0,0,1-.5-.5v-1.5h.5a.5.5,0,0,0,0-1H1v-.5a.54.54,0,0,1,.59-.51L7,9.79H18.5a.5.5,0,0,0,.5-.5V8.58l3.63,1A.5.5,0,0,1,23,10Zm-7.5,1h-7a.5.5,0,0,0,0,1h7a.5.5,0,0,0,0-1Z"></path></svg>